<?xml version="1.0" encoding="utf-8"?>
<!-- Generator: Adobe Illustrator 16.0.0, SVG Export Plug-In . SVG Version: 6.00 Build 0)  -->
<!DOCTYPE svg PUBLIC "-//W3C//DTD SVG 1.1//EN" "http://www.w3.org/Graphics/SVG/1.1/DTD/svg11.dtd">
<svg version="1.1" id="Layer_1" xmlns="http://www.w3.org/2000/svg" xmlns:xlink="http://www.w3.org/1999/xlink" x="0px" y="0px"
	 width="612px" height="792px" viewBox="0 0 612 792" enable-background="new 0 0 612 792" xml:space="preserve">
<g>
	<g>
		<path fill="#CEB5A7" d="M313.65,227.7c-12.653,0-22.95-10.297-22.95-22.95s10.297-22.95,22.95-22.95
			c12.652,0,22.949,10.297,22.949,22.95S326.303,227.7,313.65,227.7z M313.65,197.1c-4.224,0-7.65,3.427-7.65,7.65
			s3.427,7.65,7.65,7.65c4.223,0,7.649-3.427,7.649-7.65S317.873,197.1,313.65,197.1z"/>
	</g>
	<g>
		<path fill="#CEB5A7" d="M313.65,545.175c-126.547,0-229.5-102.953-229.5-229.5c0-126.546,102.954-229.5,229.5-229.5
			c126.546,0,229.5,102.954,229.5,229.5C543.15,442.222,440.196,545.175,313.65,545.175z M313.65,101.475
			c-118.109,0-214.2,96.091-214.2,214.2s96.091,214.2,214.2,214.2c118.108,0,214.199-96.092,214.199-214.2
			S431.759,101.475,313.65,101.475z"/>
	</g>
	<g>
		<path fill="#CEB5A7" d="M313.65,457.2c-16.876,0-30.601-13.725-30.601-30.601V281.25c0-16.876,13.724-30.6,30.601-30.6
			c16.876,0,30.6,13.724,30.6,30.6V426.6C344.25,443.476,330.526,457.2,313.65,457.2z M313.65,265.95c-8.438,0-15.3,6.862-15.3,15.3
			V426.6c0,8.438,6.862,15.301,15.3,15.301c8.438,0,15.3-6.862,15.3-15.301V281.25C328.95,272.812,322.088,265.95,313.65,265.95z"/>
	</g>
</g>
</svg>
