<?xml version="1.0" encoding="utf-8"?>
<!-- Generator: Adobe Illustrator 16.0.0, SVG Export Plug-In . SVG Version: 6.00 Build 0)  -->
<!DOCTYPE svg PUBLIC "-//W3C//DTD SVG 1.1//EN" "http://www.w3.org/Graphics/SVG/1.1/DTD/svg11.dtd">
<svg version="1.1" id="Layer_1" xmlns="http://www.w3.org/2000/svg" xmlns:xlink="http://www.w3.org/1999/xlink" x="0px" y="0px"
	 width="57px" height="57px" viewBox="0 0 57 57" enable-background="new 0 0 57 57" xml:space="preserve">
<g>
	<path fill="#231F20" d="M22.999,19.183v36.535H8.138V5.75h19.07c5.808,0,10.311,1.439,13.508,4.319
		c3.562,3.221,5.344,7.308,5.344,12.263c0,5.051-2.209,9.313-6.625,12.778L48,55.718H32.407l-7.211-16.105V26.76h1.171
		c3.124,0,4.685-1.341,4.685-4.026c0-2.368-1.807-3.551-5.418-3.551H22.999z"/>
</g>
<rect x="14.421" y="11.497" fill="#231F20" width="21.786" height="44.221"/>
<g>
	<path fill="#003CFF" d="M14.861,13.433v36.532H0V0h19.071c5.808,0,10.31,1.439,13.506,4.319c3.563,3.221,5.345,7.308,5.345,12.263
		c0,5.051-2.208,9.31-6.626,12.775l8.566,20.608H24.268l-7.211-16.106V21.01h1.171c3.124,0,4.685-1.341,4.685-4.026
		c0-2.368-1.806-3.551-5.417-3.551H14.861z"/>
</g>
<rect x="6.287" y="5.747" fill="#003CFF" width="21.782" height="44.218"/>
</svg>
